<svg version="1.1" viewBox="0.0 0.0 948.8740157480315 777.7112860892388" fill="none" stroke="none" stroke-linecap="square" stroke-miterlimit="10" xmlns:xlink="http://www.w3.org/1999/xlink" xmlns="http://www.w3.org/2000/svg"><clipPath id="p.0"><path d="m0 0l948.874 0l0 777.7113l-948.874 0l0 -777.7113z" clip-rule="nonzero"/></clipPath><g clip-path="url(#p.0)"><path fill="#000000" fill-opacity="0.0" d="m0 0l948.874 0l0 777.7113l-948.874 0z" fill-rule="evenodd"/><path fill="#52b8da" d="m99.94882 139.19934c0 -68.94274 55.889145 -124.83189 124.831894 -124.83189l499.31262 0c33.107483 0 64.85895 13.151894 88.26947 36.562416c23.410522 23.410522 36.562378 55.162003 36.562378 88.26947l0 499.31262c0 68.94275 -55.8891 124.83185 -124.83185 124.83185l-499.31262 0c-68.94275 0 -124.831894 -55.8891 -124.831894 -124.83185z" fill-rule="evenodd"/><path fill="#ffffff" d="m172.03194 98.28492l604.7874 0l0 186.55118l-604.7874 0z" fill-rule="evenodd"/><path fill="#ffffff" d="m300.47162 381.6974c0 -25.144165 20.383392 -45.527557 45.527557 -45.527557c12.074646 0 23.654785 4.7966614 32.19284 13.334717c8.538086 8.538086 13.334717 20.118195 13.334717 32.19284c0 25.144196 -20.383392 45.527557 -45.527557 45.527557c-25.144165 0 -45.527557 -20.383362 -45.527557 -45.527557z" fill-rule="evenodd"/><path fill="#ffffff" d="m428.91006 381.6974c0 -25.144165 20.383392 -45.527557 45.527557 -45.527557c12.074646 0 23.654785 4.7966614 32.19284 13.334717c8.538055 8.538086 13.334747 20.118195 13.334747 32.19284c0 25.144196 -20.383423 45.527557 -45.527588 45.527557c-25.144165 0 -45.527557 -20.383362 -45.527557 -45.527557z" fill-rule="evenodd"/><path fill="#ffffff" d="m557.3485 381.6974c0 -25.144165 20.383362 -45.527557 45.527588 -45.527557c12.074646 0 23.654724 4.7966614 32.19281 13.334717c8.538086 8.538086 13.334717 20.118195 13.334717 32.19284c0 25.144196 -20.383362 45.527557 -45.527527 45.527557c-25.144226 0 -45.527588 -20.383362 -45.527588 -45.527557z" fill-rule="evenodd"/><path fill="#ffffff" d="m685.787 381.6974c0 -25.144165 20.383362 -45.527557 45.527527 -45.527557c12.074646 0 23.654785 4.7966614 32.19287 13.334717c8.538025 8.538086 13.334717 20.118195 13.334717 32.19284c0 25.144196 -20.383423 45.527557 -45.527588 45.527557c-25.144165 0 -45.527527 -20.383362 -45.527527 -45.527557z" fill-rule="evenodd"/><path fill="#ffffff" d="m300.47162 507.7981c0 -25.142944 20.382385 -45.52533 45.52533 -45.52533c12.074066 0 23.653625 4.796417 32.191254 13.334076c8.537659 8.537659 13.334076 20.117188 13.334076 32.191254c0 25.142944 -20.382385 45.52533 -45.52533 45.52533c-25.142944 0 -45.52533 -20.382385 -45.52533 -45.52533z" fill-rule="evenodd"/><path fill="#ffffff" d="m428.91006 507.7981c0 -25.142944 20.382385 -45.52533 45.52533 -45.52533c12.074066 0 23.653625 4.796417 32.191284 13.334076c8.537628 8.537659 13.334076 20.117188 13.334076 32.191254c0 25.142944 -20.382416 45.52533 -45.52536 45.52533c-25.142944 0 -45.52533 -20.382385 -45.52533 -45.52533z" fill-rule="evenodd"/><path fill="#ffffff" d="m557.3485 507.7981c0 -25.142944 20.382385 -45.52533 45.52533 -45.52533c12.074097 0 23.653625 4.796417 32.191284 13.334076c8.537659 8.537659 13.334045 20.117188 13.334045 32.191254c0 25.142944 -20.382385 45.52533 -45.52533 45.52533c-25.142944 0 -45.52533 -20.382385 -45.52533 -45.52533z" fill-rule="evenodd"/><path fill="#ffffff" d="m685.787 507.7981c0 -25.142944 20.382385 -45.52533 45.52533 -45.52533c12.074036 0 23.653564 4.796417 32.191223 13.334076c8.537659 8.537659 13.334106 20.117188 13.334106 32.191254c0 25.142944 -20.382385 45.52533 -45.52533 45.52533c-25.142944 0 -45.52533 -20.382385 -45.52533 -45.52533z" fill-rule="evenodd"/><path fill="#ffffff" d="m172.03317 507.7981c0 -25.142944 20.382385 -45.52533 45.52533 -45.52533c12.074066 0 23.65361 4.796417 32.19127 13.334076c8.537643 8.537659 13.334061 20.117188 13.334061 32.191254c0 25.142944 -20.382385 45.52533 -45.52533 45.52533c-25.142944 0 -45.52533 -20.382385 -45.52533 -45.52533z" fill-rule="evenodd"/><path fill="#ffffff" d="m300.47162 633.90326c0 -25.144165 20.383392 -45.527527 45.527557 -45.527527c12.074646 0 23.654785 4.796631 32.19284 13.334656c8.538086 8.538086 13.334717 20.118225 13.334717 32.19287c0 25.144165 -20.383392 45.527588 -45.527557 45.527588c-25.144165 0 -45.527557 -20.383423 -45.527557 -45.527588z" fill-rule="evenodd"/><path fill="#ffffff" d="m428.91006 633.90326c0 -25.144165 20.383392 -45.527527 45.527557 -45.527527c12.074646 0 23.654785 4.796631 32.19284 13.334656c8.538055 8.538086 13.334747 20.118225 13.334747 32.19287c0 25.144165 -20.383423 45.527588 -45.527588 45.527588c-25.144165 0 -45.527557 -20.383423 -45.527557 -45.527588z" fill-rule="evenodd"/><path fill="#ffffff" d="m557.3485 633.90326c0 -25.144165 20.383362 -45.527527 45.527588 -45.527527c12.074646 0 23.654724 4.796631 32.19281 13.334656c8.538086 8.538086 13.334717 20.118225 13.334717 32.19287c0 25.144165 -20.383362 45.527588 -45.527527 45.527588c-25.144226 0 -45.527588 -20.383423 -45.527588 -45.527588z" fill-rule="evenodd"/><path fill="#ffffff" d="m172.03317 633.90326c0 -25.144165 20.383377 -45.527527 45.527557 -45.527527c12.074661 0 23.65477 4.796631 32.19284 13.334656c8.538086 8.538086 13.334717 20.118225 13.334717 32.19287c0 25.144165 -20.383377 45.527588 -45.527557 45.527588c-25.14418 0 -45.527557 -20.383423 -45.527557 -45.527588z" fill-rule="evenodd"/></g></svg>