<svg version="1.1" viewBox="0.0 0.0 948.8740157480315 777.7112860892388" fill="none" stroke="none" stroke-linecap="square" stroke-miterlimit="10" xmlns:xlink="http://www.w3.org/1999/xlink" xmlns="http://www.w3.org/2000/svg"><clipPath id="p.0"><path d="m0 0l948.874 0l0 777.7113l-948.874 0l0 -777.7113z" clip-rule="nonzero"/></clipPath><g clip-path="url(#p.0)"><path fill="#000000" fill-opacity="0.0" d="m0 0l948.874 0l0 777.7113l-948.874 0z" fill-rule="evenodd"/><path fill="#000000" fill-opacity="0.0" d="m198.00276 388.85565c0 -136.26213 110.462265 -246.72441 246.72441 -246.72441c65.43536 0 128.19067 25.994095 174.46051 72.2639c46.269775 46.269806 72.263916 109.025116 72.263916 174.46051c0 136.26215 -110.46228 246.72443 -246.72443 246.72443c-136.26215 0 -246.72441 -110.46228 -246.72441 -246.72443z" fill-rule="evenodd"/><path stroke="#7cd4f1" stroke-width="24.0" stroke-linejoin="round" stroke-linecap="butt" d="m198.00276 388.85565c0 -136.26213 110.462265 -246.72441 246.72441 -246.72441c65.43536 0 128.19067 25.994095 174.46051 72.2639c46.269775 46.269806 72.263916 109.025116 72.263916 174.46051c0 136.26215 -110.46228 246.72443 -246.72443 246.72443c-136.26215 0 -246.72441 -110.46228 -246.72441 -246.72443z" fill-rule="evenodd"/><path fill="#ffffff" d="m201.7507 164.39632c1.0681152E-4 -5.340576E-4 6.2561035E-4 -8.8500977E-4 0.0011749268 -7.7819824E-4l117.25865 24.032272c2.746582E-4 6.1035156E-5 4.8828125E-4 2.1362305E-4 6.4086914E-4 4.272461E-4c1.5258789E-4 2.2888184E-4 2.1362305E-4 5.0354004E-4 1.5258789E-4 7.6293945E-4l-28.599213 139.4004c-1.2207031E-4 5.187988E-4 -6.4086914E-4 8.8500977E-4 -0.001159668 7.6293945E-4l-117.25868 -24.032288c-5.340576E-4 -9.1552734E-5 -8.8500977E-4 -6.1035156E-4 -7.7819824E-4 -0.001159668z" fill-rule="evenodd"/><path fill="#7cd4f1" d="m451.4925 235.04167l-0.0038452148 59.86891c-4.8828125E-4 7.842987 -7.4556885 14.200958 -16.651611 14.200958c-9.195923 0 -16.6503 -6.357971 -16.64978 -14.200958l0.0038452148 -59.86891c4.8828125E-4 -7.842987 7.4556885 -14.200989 16.651611 -14.200989c9.195923 0 16.6503 6.3580017 16.64978 14.200989z" fill-rule="evenodd"/><path fill="#7cd4f1" d="m532.9477 425.38138l53.120667 27.615845c6.9589844 3.6177368 9.164795 13.165131 4.926941 21.324677c-4.237915 8.159546 -13.314758 11.8414 -20.273682 8.223663l-53.120667 -27.615814c-6.958954 -3.6177673 -9.164825 -13.165161 -4.926941 -21.324707c4.237915 -8.159546 13.314758 -11.8414 20.273682 -8.223663z" fill-rule="evenodd"/><path fill="#7cd4f1" d="m418.1942 295.30447l33.29135 0l0 105.700775l-33.29135 0z" fill-rule="evenodd"/><path fill="#7cd4f1" d="m539.706 428.8874l-15.62207 29.385803l-105.88977 -56.251953l15.62204 -29.385834z" fill-rule="evenodd"/><path fill="#7cd4f1" d="m198.35254 309.72488l2.3937073 -8.409454c1.3220062 -4.644409 7.5900116 -6.935852 14.0 -5.118103c6.4099884 1.817749 10.534607 7.056366 9.212601 11.700775l-2.3937073 8.409454z" fill-rule="evenodd"/><path fill="#7cd4f1" d="m346.06473 207.40417l-73.98425 15.196838l15.149597 -73.937z" fill-rule="evenodd"/></g></svg>