<svg version="1.1" viewBox="0.0 0.0 948.8740157480315 777.7112860892388" fill="none" stroke="none" stroke-linecap="square" stroke-miterlimit="10" xmlns:xlink="http://www.w3.org/1999/xlink" xmlns="http://www.w3.org/2000/svg"><clipPath id="p.0"><path d="m0 0l948.874 0l0 777.7113l-948.874 0l0 -777.7113z" clip-rule="nonzero"/></clipPath><g clip-path="url(#p.0)"><path fill="#000000" fill-opacity="0.0" d="m0 0l948.874 0l0 777.7113l-948.874 0z" fill-rule="evenodd"/><path fill="#000000" fill-opacity="0.0" d="m106.767715 388.85565c0 -203.05815 164.61116 -367.6693 367.6693 -367.6693c97.51196 0 191.03009 38.736473 259.98145 107.687836c68.951355 68.95137 107.68787 162.4695 107.68787 259.98145c0 203.0581 -164.61115 367.6693 -367.6693 367.6693c-203.05814 0 -367.6693 -164.6112 -367.6693 -367.6693z" fill-rule="evenodd"/><path stroke="#52b8da" stroke-width="24.0" stroke-linejoin="round" stroke-linecap="butt" d="m106.767715 388.85565c0 -203.05815 164.61116 -367.6693 367.6693 -367.6693c97.51196 0 191.03009 38.736473 259.98145 107.687836c68.951355 68.95137 107.68787 162.4695 107.68787 259.98145c0 203.0581 -164.61115 367.6693 -367.6693 367.6693c-203.05814 0 -367.6693 -164.6112 -367.6693 -367.6693z" fill-rule="evenodd"/><path fill="#52b8da" d="m306.27954 230.04724c0 -92.870804 75.28665 -168.15747 168.15747 -168.15747c44.598145 0 87.36963 17.716545 118.90527 49.25219c31.535645 31.535645 49.252197 74.30716 49.252197 118.90529c0 92.87082 -75.28668 168.15747 -168.15747 168.15747c-92.87082 0 -168.15747 -75.28665 -168.15747 -168.15747z" fill-rule="evenodd"/><path fill="#52b8da" d="m222.72047 665.43317l0 -117.95276c0 -65.143524 112.69734 -117.95276 251.71654 -117.95276c139.01923 0 251.71655 52.809235 251.71655 117.95276l0 117.95276z" fill-rule="evenodd"/><path stroke="#52b8da" stroke-width="1.0" stroke-linejoin="round" stroke-linecap="butt" d="m222.72047 665.43317l0 -117.95276c0 -65.143524 112.69734 -117.95276 251.71654 -117.95276c139.01923 0 251.71655 52.809235 251.71655 117.95276l0 117.95276z" fill-rule="evenodd"/><path fill="#52b8da" d="m222.72047 609.13354c0 -79.36371 112.69734 -143.70078 251.71654 -143.70078c139.01923 0 251.71655 64.33707 251.71655 143.70078c0 79.36377 -112.69733 143.7008 -251.71655 143.7008c-139.0192 0 -251.71654 -64.337036 -251.71654 -143.7008z" fill-rule="evenodd"/></g></svg>