<svg version="1.1" viewBox="0.0 0.0 948.8740157480315 777.7112860892388" fill="none" stroke="none" stroke-linecap="square" stroke-miterlimit="10" xmlns:xlink="http://www.w3.org/1999/xlink" xmlns="http://www.w3.org/2000/svg"><clipPath id="p.0"><path d="m0 0l948.874 0l0 777.7113l-948.874 0l0 -777.7113z" clip-rule="nonzero"/></clipPath><g clip-path="url(#p.0)"><path fill="#000000" fill-opacity="0.0" d="m0 0l948.874 0l0 777.7113l-948.874 0z" fill-rule="evenodd"/><path fill="#000000" fill-opacity="0.0" d="m305.52362 388.85562c0 -93.2883 75.62509 -168.91339 168.91339 -168.91339c44.798584 0 87.76239 17.796173 119.43982 49.47357c31.677368 31.67743 49.47357 74.641205 49.47357 119.43982c0 93.28827 -75.62512 168.91336 -168.91339 168.91336c-93.2883 0 -168.91339 -75.62509 -168.91339 -168.91336z" fill-rule="evenodd"/><path stroke="#52b8da" stroke-width="24.0" stroke-linejoin="round" stroke-linecap="butt" d="m305.52362 388.85562c0 -93.2883 75.62509 -168.91339 168.91339 -168.91339c44.798584 0 87.76239 17.796173 119.43982 49.47357c31.677368 31.67743 49.47357 74.641205 49.47357 119.43982c0 93.28827 -75.62512 168.91336 -168.91339 168.91336c-93.2883 0 -168.91339 -75.62509 -168.91339 -168.91336z" fill-rule="evenodd"/><path fill="#000000" fill-opacity="0.0" d="m264.42255 388.8569c0 -115.988495 94.02725 -210.01575 210.01575 -210.01575c55.699646 0 109.11798 22.126602 148.50354 61.51219c39.38562 39.385605 61.512207 92.80391 61.512207 148.50356c0 115.988495 -94.02722 210.01578 -210.01575 210.01578c-115.988495 0 -210.01575 -94.02728 -210.01575 -210.01578z" fill-rule="evenodd"/><path stroke="#52b8da" stroke-width="24.0" stroke-linejoin="round" stroke-linecap="butt" d="m264.42255 388.8569c0 -115.988495 94.02725 -210.01575 210.01575 -210.01575c55.699646 0 109.11798 22.126602 148.50354 61.51219c39.38562 39.385605 61.512207 92.80391 61.512207 148.50356c0 115.988495 -94.02722 210.01578 -210.01575 210.01578c-115.988495 0 -210.01575 -94.02728 -210.01575 -210.01578z" fill-rule="evenodd"/><path fill="#000000" fill-opacity="0.0" d="m280.20078 388.85565c0 -107.27371 86.962524 -194.23624 194.23624 -194.23624c51.51465 0 100.91937 20.464127 137.34576 56.890472c36.42633 36.42636 56.89044 85.831116 56.89044 137.34576c0 107.27368 -86.962524 194.2362 -194.2362 194.2362c-107.27371 0 -194.23624 -86.962524 -194.23624 -194.2362z" fill-rule="evenodd"/><path stroke="#52b8da" stroke-width="24.0" stroke-linejoin="round" stroke-linecap="butt" d="m280.20078 388.85565c0 -107.27371 86.962524 -194.23624 194.23624 -194.23624c51.51465 0 100.91937 20.464127 137.34576 56.890472c36.42633 36.42636 56.89044 85.831116 56.89044 137.34576c0 107.27368 -86.962524 194.2362 -194.2362 194.2362c-107.27371 0 -194.23624 -86.962524 -194.23624 -194.2362z" fill-rule="evenodd"/><path fill="#000000" fill-opacity="0.0" d="m292.8622 388.85565c0 -100.281006 81.29379 -181.57481 181.5748 -181.57481c48.156616 0 94.34088 19.130142 128.39276 53.182022c34.05188 34.05188 53.182068 80.236145 53.182068 128.39279c0 100.280975 -81.29382 181.57477 -181.57483 181.57477c-100.281006 0 -181.5748 -81.29379 -181.5748 -181.57477z" fill-rule="evenodd"/><path stroke="#52b8da" stroke-width="24.0" stroke-linejoin="round" stroke-linecap="butt" d="m292.8622 388.85565c0 -100.281006 81.29379 -181.57481 181.5748 -181.57481c48.156616 0 94.34088 19.130142 128.39276 53.182022c34.05188 34.05188 53.182068 80.236145 53.182068 128.39279c0 100.280975 -81.29382 181.57477 -181.57483 181.57477c-100.281006 0 -181.5748 -81.29379 -181.5748 -181.57477z" fill-rule="evenodd"/><path fill="#000000" fill-opacity="0.0" d="m363.25726 388.85565c0 -61.403625 49.777466 -111.18112 111.18109 -111.18112c29.487091 0 57.76642 11.713715 78.61694 32.56421c20.850464 20.850494 32.564148 49.129852 32.564148 78.61691c0 61.403625 -49.777466 111.18109 -111.18109 111.18109c-61.403625 0 -111.18109 -49.777466 -111.18109 -111.18109z" fill-rule="evenodd"/><path stroke="#52b8da" stroke-width="24.0" stroke-linejoin="round" stroke-linecap="butt" d="m363.25726 388.85565c0 -61.403625 49.777466 -111.18112 111.18109 -111.18112c29.487091 0 57.76642 11.713715 78.61694 32.56421c20.850464 20.850494 32.564148 49.129852 32.564148 78.61691c0 61.403625 -49.777466 111.18109 -111.18109 111.18109c-61.403625 0 -111.18109 -49.777466 -111.18109 -111.18109z" fill-rule="evenodd"/><path fill="#000000" fill-opacity="0.0" d="m345.11548 388.85565c0 -71.423035 57.89981 -129.32285 129.32285 -129.32285c34.298523 0 67.19229 13.625061 91.44504 37.877777c24.252747 24.252747 37.877808 57.146515 37.877808 91.44507c0 71.423035 -57.89984 129.32281 -129.32285 129.32281c-71.423035 0 -129.32285 -57.89978 -129.32285 -129.32281z" fill-rule="evenodd"/><path stroke="#52b8da" stroke-width="24.0" stroke-linejoin="round" stroke-linecap="butt" d="m345.11548 388.85565c0 -71.423035 57.89981 -129.32285 129.32285 -129.32285c34.298523 0 67.19229 13.625061 91.44504 37.877777c24.252747 24.252747 37.877808 57.146515 37.877808 91.44507c0 71.423035 -57.89984 129.32281 -129.32285 129.32281c-71.423035 0 -129.32285 -57.89978 -129.32285 -129.32281z" fill-rule="evenodd"/><path fill="#000000" fill-opacity="0.0" d="m327.01968 388.85565c0 -81.41635 66.00098 -147.41733 147.41733 -147.41733c39.097473 0 76.59369 15.531433 104.23981 43.17752c27.646118 27.646118 43.17749 65.1423 43.17749 104.23981c0 81.41632 -66.00098 147.4173 -147.4173 147.4173c-81.41635 0 -147.41733 -66.00098 -147.41733 -147.4173z" fill-rule="evenodd"/><path stroke="#52b8da" stroke-width="24.0" stroke-linejoin="round" stroke-linecap="butt" d="m327.01968 388.85565c0 -81.41635 66.00098 -147.41733 147.41733 -147.41733c39.097473 0 76.59369 15.531433 104.23981 43.17752c27.646118 27.646118 43.17749 65.1423 43.17749 104.23981c0 81.41632 -66.00098 147.4173 -147.4173 147.4173c-81.41635 0 -147.41733 -66.00098 -147.41733 -147.4173z" fill-rule="evenodd"/><path fill="#52b8da" d="m376.6168 207.28609l21.367004 -103.30708l151.28177 0l21.367004 103.30708z" fill-rule="evenodd"/><path fill="#52b8da" d="m411.15747 91.821526l125.00787 0c3.5292969 0 6.9140015 1.4019928 9.409546 3.8975525c2.4955444 2.4955597 3.897522 5.880272 3.897522 9.409531l0 13.307083c0 7.019043E-4 -5.493164E-4 0.0012664795 -0.0012207031 0.0012664795l-151.62079 -0.0012664795c-7.019043E-4 0 -0.0012817383 -5.645752E-4 -0.0012817383 -0.0012588501l0.0012817383 -13.305824c0 -7.349304 5.9577637 -13.307083 13.307068 -13.307083z" fill-rule="evenodd"/><path fill="#52b8da" d="m268.89786 381.63577l-78.357254 -70.64081l76.44264 -130.55614l99.950775 33.761337z" fill-rule="evenodd"/><path fill="#52b8da" d="m186.70535 293.4829l63.166473 -107.881805c1.7833405 -3.0457458 4.7035522 -5.258316 8.118225 -6.1509857c3.4146729 -0.8926544 7.0441284 -0.3922882 10.089874 1.3910522l11.484009 6.72406c6.1035156E-4 3.5095215E-4 7.9345703E-4 0.0011291504 4.5776367E-4 0.001739502l-76.61508 130.8481c-3.5095215E-4 6.1035156E-4 -0.0011291504 7.9345703E-4 -0.0017242432 4.5776367E-4l-11.482285 -6.7245483c-6.342453 -3.7135925 -8.4735565 -11.865631 -4.7599487 -18.208069z" fill-rule="evenodd"/><path fill="#52b8da" d="m581.9553 213.57243l100.17206 -33.11232l75.59546 131.05539l-78.81781 70.13278z" fill-rule="evenodd"/><path fill="#52b8da" d="m699.24225 185.79738l62.46643 108.29433c1.7636108 3.0574036 2.2404175 6.690155 1.3255005 10.099091c-0.91485596 3.4089355 -3.1464233 6.3148193 -6.2038574 8.0784l-11.527893 6.649536c-6.1035156E-4 3.6621094E-4 -0.0014038086 1.5258789E-4 -0.0017700195 -4.5776367E-4l-75.763794 -131.34972c-3.6621094E-4 -6.1035156E-4 -1.2207031E-4 -0.001373291 4.8828125E-4 -0.0017242432l11.527466 -6.647827c6.366699 -3.6724548 14.505005 -1.488327 18.17743 4.878372z" fill-rule="evenodd"/><path fill="#52b8da" d="m571.9136 568.9759l-21.367004 103.30713l-151.28174 0l-21.367004 -103.30713z" fill-rule="evenodd"/><path fill="#52b8da" d="m537.37286 684.4405l-125.00784 0c-3.5292664 0 -6.913971 -1.4020386 -9.409546 -3.897583c-2.4955444 -2.4955444 -3.8975525 -5.880249 -3.8975525 -9.409546l0 -13.307068c0 -6.713867E-4 5.79834E-4 -0.0012817383 0.0012512207 -0.0012817383l151.62082 0.0012817383c6.713867E-4 0 0.0012207031 5.493164E-4 0.0012207031 0.0012817383l-0.0012207031 13.305786c0 7.349304 -5.9578247 13.307129 -13.307129 13.307129z" fill-rule="evenodd"/><path fill="#52b8da" d="m679.6325 393.17694l78.35724 70.64081l-76.44263 130.55615l-99.950806 -33.761353z" fill-rule="evenodd"/><path fill="#52b8da" d="m761.825 481.3298l-63.166504 107.881805c-1.7833252 3.0457764 -4.703491 5.258301 -8.118225 6.151001c-3.4146729 0.89263916 -7.0440674 0.39227295 -10.089844 -1.3910522l-11.484009 -6.72406c-6.1035156E-4 -3.6621094E-4 -7.9345703E-4 -0.001159668 -4.272461E-4 -0.0017700195l76.61505 -130.84808c3.6621094E-4 -5.79834E-4 0.0010986328 -7.9345703E-4 0.0017089844 -4.5776367E-4l11.4823 6.7245483c6.3424683 3.7135925 8.473572 11.865631 4.7599487 18.208069z" fill-rule="evenodd"/><path fill="#52b8da" d="m366.575 561.2403l-100.172 33.112305l-75.595505 -131.05536l78.817856 -70.13281z" fill-rule="evenodd"/><path fill="#52b8da" d="m249.28809 589.0153l-62.46643 -108.29431c-1.7635651 -3.0574036 -2.2403564 -6.690155 -1.3254852 -10.099091c0.9148712 -3.4089355 3.146469 -6.3148193 6.2038574 -8.078369l11.527939 -6.6495667c5.950928E-4 -3.3569336E-4 0.001373291 -1.5258789E-4 0.0017242432 4.5776367E-4l75.76381 131.3497c3.3569336E-4 6.1035156E-4 1.5258789E-4 0.0014038086 -4.5776367E-4 0.0017700195l-11.527466 6.647827c-6.366699 3.6724243 -14.505035 1.4882812 -18.17749 -4.878418z" fill-rule="evenodd"/></g></svg>