<svg version="1.1" viewBox="0.0 0.0 948.8740157480315 777.7112860892388" fill="none" stroke="none" stroke-linecap="square" stroke-miterlimit="10" xmlns:xlink="http://www.w3.org/1999/xlink" xmlns="http://www.w3.org/2000/svg"><clipPath id="p.0"><path d="m0 0l948.874 0l0 777.7113l-948.874 0l0 -777.7113z" clip-rule="nonzero"/></clipPath><g clip-path="url(#p.0)"><path fill="#000000" fill-opacity="0.0" d="m0 0l948.874 0l0 777.7113l-948.874 0z" fill-rule="evenodd"/><path fill="#52b8da" d="m146.01181 123.84471c0 -60.46262 49.014633 -109.47726 109.47725 -109.47726l437.89587 0c29.035156 0 56.881165 11.534178 77.41211 32.065144c20.530945 20.530972 32.065125 48.376934 32.065125 77.41211l0 530.02185c0 60.462646 -49.014587 109.477234 -109.477234 109.477234l-437.89587 0c-60.462616 0 -109.47725 -49.014587 -109.47725 -109.477234z" fill-rule="evenodd"/><path fill="#ffffff" d="m335.79135 44.026237l277.29135 0l0 76.72441l-277.29135 0z" fill-rule="evenodd"/><path fill="#ffffff" d="m460.6732 274.2287l69.85727 0c9.151428 0 16.57019 6.8315125 16.57019 15.258575c0 8.4270935 -7.418762 15.258575 -16.57019 15.258575l-69.85727 0c-9.151489 0 -16.57022 -6.831482 -16.57022 -15.258575c0 -8.427063 7.4187317 -15.258575 16.57022 -15.258575z" fill-rule="evenodd"/><path fill="#ffffff" d="m507.02676 274.22763l51.59555 0c6.7591553 0 12.238525 6.831482 12.238525 15.258575c0 8.427063 -5.47937 15.258575 -12.238525 15.258575l-51.59555 0c-6.7591553 0 -12.238525 -6.8315125 -12.238525 -15.258575c0 -8.4270935 5.47937 -15.258575 12.238525 -15.258575z" fill-rule="evenodd"/><path fill="#ffffff" d="m563.0387 274.22763l51.59558 0c6.7591553 0 12.238525 6.831482 12.238525 15.258575c0 8.427063 -5.47937 15.258575 -12.238525 15.258575l-51.59558 0c-6.7591553 0 -12.238525 -6.8315125 -12.238525 -15.258575c0 -8.4270935 5.47937 -15.258575 12.238525 -15.258575z" fill-rule="evenodd"/><path fill="#ffffff" d="m617.27386 274.22763l51.59552 0c6.7591553 0 12.238586 6.831482 12.238586 15.258575c0 8.427063 -5.479431 15.258575 -12.238586 15.258575l-51.59552 0c-6.7591553 0 -12.238525 -6.8315125 -12.238525 -15.258575c0 -8.4270935 5.47937 -15.258575 12.238525 -15.258575z" fill-rule="evenodd"/><path fill="#ffffff" d="m643.1774 274.2287l69.85858 0c9.151672 0 16.570557 6.8316345 16.570557 15.258911c0 8.427246 -7.4188843 15.258881 -16.570557 15.258881l-69.85858 0c-9.151672 0 -16.570557 -6.8316345 -16.570557 -15.258881c0 -8.427277 7.4188843 -15.258911 16.570557 -15.258911z" fill-rule="evenodd"/><path fill="#ffffff" d="m460.6732 547.2523l69.85727 0c9.151428 0 16.57019 6.831482 16.57019 15.258606c0 8.427063 -7.418762 15.258545 -16.57019 15.258545l-69.85727 0c-9.151489 0 -16.57022 -6.831482 -16.57022 -15.258545c0 -8.427124 7.4187317 -15.258606 16.57022 -15.258606z" fill-rule="evenodd"/><path fill="#ffffff" d="m507.02676 547.2512l51.59555 0c6.7591553 0 12.238525 6.831543 12.238525 15.258606c0 8.427063 -5.47937 15.258545 -12.238525 15.258545l-51.59555 0c-6.7591553 0 -12.238525 -6.831482 -12.238525 -15.258545c0 -8.427063 5.47937 -15.258606 12.238525 -15.258606z" fill-rule="evenodd"/><path fill="#ffffff" d="m563.0387 547.2512l51.59558 0c6.7591553 0 12.238525 6.831543 12.238525 15.258606c0 8.427063 -5.47937 15.258545 -12.238525 15.258545l-51.59558 0c-6.7591553 0 -12.238525 -6.831482 -12.238525 -15.258545c0 -8.427063 5.47937 -15.258606 12.238525 -15.258606z" fill-rule="evenodd"/><path fill="#ffffff" d="m617.27386 547.2512l51.59552 0c6.7591553 0 12.238586 6.831543 12.238586 15.258606c0 8.427063 -5.479431 15.258545 -12.238586 15.258545l-51.59552 0c-6.7591553 0 -12.238525 -6.831482 -12.238525 -15.258545c0 -8.427063 5.47937 -15.258606 12.238525 -15.258606z" fill-rule="evenodd"/><path fill="#ffffff" d="m643.1774 547.2523l69.85858 0c9.151672 0 16.570557 6.831665 16.570557 15.258911c0 8.427246 -7.4188843 15.258911 -16.570557 15.258911l-69.85858 0c-9.151672 0 -16.570557 -6.831665 -16.570557 -15.258911c0 -8.427246 7.4188843 -15.258911 16.570557 -15.258911z" fill-rule="evenodd"/><path fill="#ffffff" d="m460.6732 410.7405l69.85727 0c9.151428 0 16.57019 6.8315125 16.57019 15.258575c0 8.4270935 -7.418762 15.258575 -16.57019 15.258575l-69.85727 0c-9.151489 0 -16.57022 -6.831482 -16.57022 -15.258575c0 -8.427063 7.4187317 -15.258575 16.57022 -15.258575z" fill-rule="evenodd"/><path fill="#ffffff" d="m507.02676 410.73944l51.59555 0c6.7591553 0 12.238525 6.831482 12.238525 15.258575c0 8.427063 -5.47937 15.258575 -12.238525 15.258575l-51.59555 0c-6.7591553 0 -12.238525 -6.8315125 -12.238525 -15.258575c0 -8.4270935 5.47937 -15.258575 12.238525 -15.258575z" fill-rule="evenodd"/><path fill="#ffffff" d="m563.0387 410.73944l51.59558 0c6.7591553 0 12.238525 6.831482 12.238525 15.258575c0 8.427063 -5.47937 15.258575 -12.238525 15.258575l-51.59558 0c-6.7591553 0 -12.238525 -6.8315125 -12.238525 -15.258575c0 -8.4270935 5.47937 -15.258575 12.238525 -15.258575z" fill-rule="evenodd"/><path fill="#ffffff" d="m617.27386 410.73944l51.59552 0c6.7591553 0 12.238586 6.831482 12.238586 15.258575c0 8.427063 -5.479431 15.258575 -12.238586 15.258575l-51.59552 0c-6.7591553 0 -12.238525 -6.8315125 -12.238525 -15.258575c0 -8.4270935 5.47937 -15.258575 12.238525 -15.258575z" fill-rule="evenodd"/><path fill="#ffffff" d="m643.1774 410.7405l69.85858 0c9.151672 0 16.570557 6.8316345 16.570557 15.258911c0 8.427246 -7.4188843 15.258881 -16.570557 15.258881l-69.85858 0c-9.151672 0 -16.570557 -6.8316345 -16.570557 -15.258881c0 -8.427277 7.4188843 -15.258911 16.570557 -15.258911z" fill-rule="evenodd"/><path fill="#ffffff" d="m256.3256 259.15134l55.208557 45.753357c7.232483 5.993805 8.736145 16.11325 3.358551 22.602356c-5.377594 6.4891357 -15.600067 6.890686 -22.83255 0.8968506l-55.208588 -45.753357c-7.2324677 -5.9938354 -8.736145 -16.11325 -3.358551 -22.602386c5.3776093 -6.4891205 15.600098 -6.8906555 22.83258 -0.89682007z" fill-rule="evenodd"/><path fill="#ffffff" d="m292.31494 319.36142c-3.2742615 -1.8726807 -4.4111633 -6.0455017 -2.5393372 -9.320282l41.00107 -71.73158c0.89886475 -1.5726013 2.385559 -2.7235413 4.1329956 -3.199646c1.747406 -0.47608948 3.6124573 -0.23834229 5.1848145 0.6609497l14.631012 8.368042c3.2742615 1.8726654 4.411194 6.0455017 2.5393677 9.320251l-41.00107 71.73161c-1.8718262 3.2747498 -6.0435486 4.4113464 -9.31781 2.5386658z" fill-rule="evenodd"/><path fill="#ffffff" d="m309.15805 276.14795l35.582947 -62.24521c4.6614685 -8.154282 14.372192 -11.373566 21.689484 -7.1904755c7.3172913 4.1831055 9.470276 14.18454 4.8088074 22.338821l-35.582977 62.24521c-4.6614685 8.154297 -14.372162 11.373566 -21.689453 7.19046c-7.3172913 -4.1831055 -9.470276 -14.18454 -4.8088074 -22.338806z" fill-rule="evenodd"/><path fill="#ffffff" d="m256.3256 398.56055l55.208557 45.753357c7.232483 5.9938354 8.736145 16.11325 3.358551 22.602386c-5.377594 6.4891357 -15.600067 6.8906555 -22.83255 0.8968506l-55.208588 -45.753387c-7.2324677 -5.993805 -8.736145 -16.11325 -3.358551 -22.602356c5.3776093 -6.4891357 15.600098 -6.8906555 22.83258 -0.8968506z" fill-rule="evenodd"/><path fill="#ffffff" d="m292.31494 458.77063c-3.2742615 -1.8726807 -4.4111633 -6.0455017 -2.5393372 -9.320251l41.00107 -71.7316c0.89886475 -1.5726013 2.385559 -2.7235413 4.1329956 -3.199646c1.747406 -0.47610474 3.6124573 -0.23834229 5.1848145 0.6609497l14.631012 8.368042c3.2742615 1.8726807 4.411194 6.0455017 2.5393677 9.320251l-41.00107 71.7316c-1.8718262 3.2747498 -6.0435486 4.411377 -9.31781 2.5386963z" fill-rule="evenodd"/><path fill="#ffffff" d="m309.15805 415.55716l35.582947 -62.24521c4.6614685 -8.154266 14.372192 -11.373566 21.689484 -7.19046c7.3172913 4.1831055 9.470276 14.18454 4.8088074 22.338837l-35.582977 62.24518c-4.6614685 8.154297 -14.372162 11.373566 -21.689453 7.1904907c-7.3172913 -4.1831055 -9.470276 -14.18454 -4.8088074 -22.338837z" fill-rule="evenodd"/><path fill="#ffffff" d="m256.3256 535.07214l55.208557 45.753357c7.232483 5.9938354 8.736145 16.11322 3.358551 22.602356c-5.377594 6.4891357 -15.600067 6.890686 -22.83255 0.8968506l-55.208588 -45.753357c-7.2324677 -5.9938354 -8.736145 -16.113281 -3.358551 -22.602356c5.3776093 -6.4891357 15.600098 -6.890686 22.83258 -0.8968506z" fill-rule="evenodd"/><path fill="#ffffff" d="m292.31494 595.2822c-3.2742615 -1.8726807 -4.4111633 -6.045532 -2.5393372 -9.320251l41.00107 -71.73163c0.89886475 -1.5725708 2.385559 -2.7235413 4.1329956 -3.1996155c1.747406 -0.47610474 3.6124573 -0.2383728 5.1848145 0.6609192l14.631012 8.368042c3.2742615 1.8726807 4.411194 6.045532 2.5393677 9.320251l-41.00107 71.73163c-1.8718262 3.2747192 -6.0435486 4.411377 -9.31781 2.5386963z" fill-rule="evenodd"/><path fill="#ffffff" d="m309.15805 552.0687l35.582947 -62.24518c4.6614685 -8.154297 14.372192 -11.373566 21.689484 -7.19046c7.3172913 4.183075 9.470276 14.184509 4.8088074 22.338806l-35.582977 62.24521c-4.6614685 8.154297 -14.372162 11.373535 -21.689453 7.1904907c-7.3172913 -4.1831055 -9.470276 -14.18457 -4.8088074 -22.338867z" fill-rule="evenodd"/></g></svg>